<?xml version="1.0" standalone="no"?><!DOCTYPE svg PUBLIC "-//W3C//DTD SVG 1.1//EN" "http://www.w3.org/Graphics/SVG/1.1/DTD/svg11.dtd"><svg class="icon" width="200px" height="200.00px" viewBox="0 0 1024 1024" version="1.1" xmlns="http://www.w3.org/2000/svg"><path fill="#333333" d="M413.63 471.83H250.18c-32.09 0-58.18-26.09-58.18-58.18V250.18c0-32.09 26.09-58.18 58.18-58.18h163.45c32.09 0 58.18 26.09 58.18 58.18v163.47c0.01 32.09-26.09 58.18-58.18 58.18zM250.18 250.18v163.47h163.49l-0.04-163.47H250.18zM773.82 471.83H610.35c-32.09 0-58.18-26.09-58.18-58.18V250.18c0-32.09 26.09-58.18 58.18-58.18h163.47c32.09 0 58.18 26.09 58.18 58.18v163.47c0 32.09-26.09 58.18-58.18 58.18zM610.35 250.18v163.47h163.51l-0.04-163.47H610.35zM413.63 832H250.18c-32.09 0-58.18-26.09-58.18-58.18V610.35c0-32.09 26.09-58.18 58.18-58.18h163.45c32.09 0 58.18 26.09 58.18 58.18v163.47c0.01 32.09-26.09 58.18-58.18 58.18zM250.18 610.35v163.47h163.49l-0.04-163.47H250.18zM773.82 832H610.35c-32.09 0-58.18-26.09-58.18-58.18V610.35c0-32.09 26.09-58.18 58.18-58.18h163.47c32.09 0 58.18 26.09 58.18 58.18v163.47c0 32.09-26.09 58.18-58.18 58.18zM610.35 610.35v163.47h163.51l-0.04-163.47H610.35z" /></svg>