<?xml version="1.0" standalone="no"?><!DOCTYPE svg PUBLIC "-//W3C//DTD SVG 1.1//EN" "http://www.w3.org/Graphics/SVG/1.1/DTD/svg11.dtd"><svg t="1675487169023" class="icon" viewBox="0 0 1024 1024" version="1.1" xmlns="http://www.w3.org/2000/svg" p-id="1614" xmlns:xlink="http://www.w3.org/1999/xlink" width="200" height="200"><path d="M452.67 834.596a15.88 15.88 0 0 1-7.284-1.77c-3.012-1.549-74.01-38.77-91.665-110.903-26.24-107.258 34.922-174.825 37.533-177.649 5.997-6.472 16.109-6.864 22.581-0.86 6.46 5.982 6.86 16.06 0.901 22.54-0.3 0.328-13.39 14.954-23.52 40.409-13.502 33.941-15.671 70.267-6.449 107.963 14.128 57.77 74.65 89.777 75.257 90.092 7.82 4.062 10.896 13.697 6.846 21.523-2.834 5.5-8.42 8.655-14.2 8.655z m0 0M586.97 159.612H436.94c-18.91 0-34.234-15.33-34.234-34.24 0-18.912 15.325-34.243 34.234-34.243h150.03c18.904 0 34.236 15.331 34.236 34.242-0.002 18.91-15.332 34.24-34.237 34.24z m0 0M586.97 276.824H436.94c-18.91 0-34.234-15.331-34.234-34.235 0-18.91 15.325-34.24 34.234-34.24h150.03c18.904 0 34.236 15.33 34.236 34.24-0.002 18.905-15.332 34.235-34.237 34.235z m0 0" fill="" p-id="1615"></path><path d="M511.955 932.871c-41.244 0-82.422-9.217-122.394-27.389-53.23-24.2-95.787-67.07-119.831-120.72-32.64-72.833-35.292-151.198-7.471-220.674 24.553-61.324 71.526-111.875 130.445-141.128V390.91c0-37.71 30.682-68.386 68.392-68.386h101.718c37.71 0 68.39 30.675 68.39 68.386v32.033c41.252 20.406 76.518 51.002 102.76 89.326 30.666 44.791 46.874 97.257 46.874 151.721 0 71.82-27.972 139.343-78.752 190.13-50.788 50.783-118.31 78.752-190.131 78.752z m-50.768-541.866v50.324c0 16.324-9.784 30.87-24.926 37.056-50.082 20.446-90.325 60.964-110.432 111.165-14.756 36.847-25.626 95.766 6.394 167.209 17.213 38.409 47.647 69.096 85.684 86.386 31.007 14.097 62.654 21.25 94.049 21.25 53.532 0 103.853-20.845 141.707-58.7 37.847-37.846 58.692-88.169 58.692-141.7 0-81.827-48.953-154.681-124.705-185.617-15.149-6.179-24.928-20.72-24.928-37.043v-50.33H461.187z m0 0M901.914 912.662c-2.632 0-5.298-0.676-7.734-2.1-7.324-4.279-9.794-13.684-5.516-21.01 68.848-117.865 74.706-261.41 15.671-383.988-3.68-7.643-0.469-16.822 7.175-20.503 7.64-3.684 16.822-0.47 20.503 7.173 31.321 65.034 46.156 137.656 42.9 210.014-3.207 71.274-23.859 141.401-59.722 202.798-2.856 4.89-7.998 7.616-13.277 7.616zM122.087 912.662c-5.281 0-10.42-2.725-13.277-7.616-35.865-61.396-56.516-131.524-59.724-202.797-3.256-72.358 11.58-144.98 42.9-210.014 3.681-7.643 12.86-10.857 20.504-7.173 7.644 3.68 10.855 12.86 7.174 20.503-59.035 122.577-53.177 266.124 15.67 383.988 4.28 7.325 1.81 16.731-5.514 21.01a15.29 15.29 0 0 1-7.733 2.099z" fill="" p-id="1616"></path></svg>