<?xml version="1.0" standalone="no"?><!DOCTYPE svg PUBLIC "-//W3C//DTD SVG 1.1//EN" "http://www.w3.org/Graphics/SVG/1.1/DTD/svg11.dtd"><svg t="1675487154933" class="icon" viewBox="0 0 1024 1024" version="1.1" xmlns="http://www.w3.org/2000/svg" p-id="1460" xmlns:xlink="http://www.w3.org/1999/xlink" width="200" height="200"><path d="M832.6 239l65.6-63.8c13.5-13.4 13.6-35.3 0.1-48.8l-0.1-0.1-1.3-0.5c-13.4-13.5-35.3-13.6-48.8-0.1l-0.1 0.1-64.4 64.4c-13.5 13.5-13.5 35.4 0 48.9 13.6 13.4 35.5 13.4 49-0.1zM191.4 785l-65.6 63.8c-13.5 13.4-13.6 35.3-0.1 48.8l0.1 0.1 1.3 0.5c13.4 13.5 35.3 13.6 48.8 0.1l0.1-0.1 64.4-64.4c13.5-13.5 13.5-35.4 0-48.9-13.6-13.4-35.5-13.4-49 0.1z m320.5-624.8h0.3c19.1 0 34.5-15.4 34.5-34.5V34.6C546.6 15.5 531.1 0 512 0s-34.6 15.5-34.6 34.6v91.1c0 19.1 15.4 34.5 34.5 34.5z m-316.7 79c13.4 13.5 35.3 13.6 48.8 0.1l0.1-0.1 0.3 1c13.5-13.4 13.6-35.3 0.1-48.8l-0.1-0.1-62-65.9c-13.2-13.8-35.1-14.3-48.9-1-13.8 13.2-14.3 35.1-1 48.9l62.7 65.9zM160.6 512c0-19.1-15.5-34.6-34.6-34.6H34.6C15.5 477.4 0 492.9 0 512s15.5 34.6 34.6 34.6H126c19.1 0 34.6-15.5 34.6-34.6z m668.2 272.8c-13.4-13.5-35.3-13.6-48.8-0.1l-0.1 0.1-0.3-1c-13.5 13.4-13.6 35.3-0.1 48.8l0.1 0.1 62 65.9c13.2 13.8 35.1 14.3 48.9 1 13.8-13.2 14.3-35.1 1-48.9l-62.7-65.9z m160.6-307.4h-91.1c-19.1 0-34.6 15.5-34.6 34.6s15.5 34.6 34.6 34.6h91.1c19.1 0 34.6-15.5 34.6-34.6s-15.5-34.6-34.6-34.6zM512.1 863.8h-0.3c-19.1 0-34.5 15.4-34.5 34.5v91.1c0 19.1 15.5 34.6 34.6 34.6s34.6-15.5 34.6-34.6v-91.1c0.1-19.1-15.3-34.5-34.4-34.5z m267-343.1c-14.3-8.5-32.4-7.2-45.3 3.2-29.9 24-66.1 36.6-104.5 36.6-92.3 0-167.5-75.1-167.5-167.5 0-38.1 12.5-74 36-103.8 10.3-13 11.5-31.1 2.9-45.4-8.5-14.3-25-21.8-41.4-18.8-66.5 11.9-127.2 47-171.1 98.9-44.4 52.5-68.9 119.3-68.9 188.1 0 160.8 130.8 291.5 291.5 291.5 69 0 136-24.7 188.7-69.4 52-44.2 87-105.4 98.6-172.2 2.9-16.3-4.7-32.7-19-41.2zM647.8 673.3c-38.2 32.5-86.8 50.4-136.8 50.4-116.6 0-211.5-94.9-211.5-211.5 0-49.8 17.8-98.3 50-136.4 11.3-13.3 24-25.1 38-35.2-3.7 17.1-5.5 34.6-5.5 52.5 0 66.1 25.7 128.2 72.5 175 46.7 46.7 108.9 72.5 175 72.5 18.2 0 36.4-2 54-6-10.3 14.2-22.2 27.2-35.7 38.7z" fill="#040000" p-id="1461"></path></svg>